@startuml

class com.sudoku.App {
	{field} {static} -height : int
	{field} {static} -width : int
	{method}  {static} +main ( paramString;1 : [Ljava.lang.String; ) : void
}


abstract class com.sudoku.controller.Window {
	{field} -dictionary : java.util.Map
	{method} +addElement ( paramElement1 : com.sudoku.view.elements.Element , paramdouble2 : double ) : void
	{method} +changeElementDepth ( paramElement1 : com.sudoku.view.elements.Element , paramdouble2 : double ) : void
	{method} +draw () : void
	{method} +elementExists ( paramElement1 : com.sudoku.view.elements.Element ) : boolean
	{method} +removeElement ( paramElement1 : com.sudoku.view.elements.Element ) : boolean
}


interface com.sudoku.controller.WindowInterface {
	{method}  {abstract} +create () : void
	{method} +cursorPosCallback ( paramdouble1 : double , paramdouble2 : double ) : void
	{method} +keyCallback ( paramint1 : int , paramint2 : int , paramint3 : int , paramint4 : int ) : void
	{method} +mouseButtonCallback ( paramint1 : int , paramint2 : int , paramint3 : int ) : void
	{method} +resizeCallback ( paramint1 : int , paramint2 : int ) : void
	{method}  {abstract} +step () : void
}


class com.sudoku.controller.WindowManager {
	{field} -fullscreen : boolean
	{field} -h : int
	{field} -w : int
	{field} -window : long
	{method} +init () : void
	{method} -loop () : void
	{method} +run () : void
	{method} +toggleFullscreen () : void
}


class com.sudoku.controller.windows.CreateMenuWindow {
	{field} -buttonArray : [[Lcom.sudoku.view.elements.FieldButton;
	{field} -errorDetected : boolean
	{field} -fieldsize : double
	{field} -gpadNumpadIndex : int
	{field} -gpad_selected_before : boolean
	{field} -height : int
	{field} -mouseX : double
	{field} -mouseY : double
	{field} -numpad_buffer : long
	{field} -numpad_buffer_timestamp : long
	{field} -numpad_for_board : boolean
	{field} -numpad_type_buffer : long
	{field} -numpad_type_buffer_timestamp : long
	{field} -numpad_type_selected_before : boolean
	{field} -output : String
	{field} -selectedField : [I
	{field} -size : int
	{field} -solveable : boolean
	{field} -standardSize : int
	{field} -sudokuCreated : boolean
	{field} -textFieldPrime : [F
	{field} -unique : boolean
	{field} -width : int
	{field} -xStart : double
	{field} -yStart : double
	{method} -bigfieldline () : void
	{method} -clearSelectField () : void
	{method} +create () : void
	{method} +createSudoku () : void
	{method} +cursorPosCallback ( paramdouble1 : double , paramdouble2 : double ) : void
	{method} +keyCallback ( paramint1 : int , paramint2 : int , paramint3 : int , paramint4 : int ) : void
	{method} +mouseButtonCallback ( paramint1 : int , paramint2 : int , paramint3 : int ) : void
	{method} -numPadHover ( paramdouble1 : double , paramdouble2 : double ) : void
	{method} -regularline () : void
	{method} +resizeCallback ( paramint1 : int , paramint2 : int ) : void
	{method} +step () : void
	{method} -textFieldHover ( paramdouble1 : double , paramdouble2 : double ) : void
	{method} -typeBoard ( paramint1 : int ) : void
	{method} +typeSize ( paramint1 : int ) : void
	{method} -updateBoardState ( paramint1 : int ) : void
	{method} +windowTransition ( paramMenuButton1 : com.sudoku.view.elements.MenuButton , paramboolean2 : boolean ) : void
}


class com.sudoku.controller.windows.EndScreenWindow {
	{field} -endCondition : String
	{field} -height : int
	{field} -mouseX : double
	{field} -mouseY : double
	{field} -width : int
	{method} +create () : void
	{method} +cursorPosCallback ( paramdouble1 : double , paramdouble2 : double ) : void
	{method} -holdOver ( paramMenuButton1 : com.sudoku.view.elements.MenuButton ) : void
	{method} +keyCallback ( paramint1 : int , paramint2 : int , paramint3 : int , paramint4 : int ) : void
	{method} +mouseButtonCallback ( paramint1 : int , paramint2 : int , paramint3 : int ) : void
	{method} +resizeCallback ( paramint1 : int , paramint2 : int ) : void
	{method} +step () : void
}


class com.sudoku.controller.windows.HintWindow {
	{field} -mouseX : double
	{field} -mouseY : double
	{method} +create () : void
	{method} +cursorPosCallback ( paramdouble1 : double , paramdouble2 : double ) : void
	{method} +keyCallback ( paramint1 : int , paramint2 : int , paramint3 : int , paramint4 : int ) : void
	{method} +mouseButtonCallback ( paramint1 : int , paramint2 : int , paramint3 : int ) : void
	{method} +resizeCallback ( paramint1 : int , paramint2 : int ) : void
	{method} +step () : void
}


class com.sudoku.controller.windows.PlaySudokuSettingsWindow {
	{field} -Buttons : [Lcom.sudoku.view.elements.MenuButton;
	{field} -gpadNumpadIndex : int
	{field} -gpad_selected_before : boolean
	{field} -height : int
	{field} -mbLeftHeld : boolean
	{field} -mouseX : double
	{field} -mouseY : double
	{field} -numpad_buffer : long
	{field} -numpad_buffer_timestamp : long
	{field} -numpad_type_buffer : long
	{field} -numpad_type_buffer_timestamp : long
	{field} -numpad_type_selected_before : boolean
	{field} -output : String
	{field} -startButtonShowing : boolean
	{field} -textFieldPrime : [F
	{field} -width : int
	{method} +create () : void
	{method} +cursorPosCallback ( paramdouble1 : double , paramdouble2 : double ) : void
	{method} +keyCallback ( paramint1 : int , paramint2 : int , paramint3 : int , paramint4 : int ) : void
	{method} +mouseButtonCallback ( paramint1 : int , paramint2 : int , paramint3 : int ) : void
	{method} -numPadHover ( paramdouble1 : double , paramdouble2 : double ) : void
	{method} +resizeCallback ( paramint1 : int , paramint2 : int ) : void
	{method} +step () : void
	{method} -textFieldHover ( paramdouble1 : double , paramdouble2 : double ) : void
	{method} +typeSize ( paramint1 : int ) : void
	{method} +windowTransition ( paramMenuButton1 : com.sudoku.view.elements.MenuButton , paramboolean2 : boolean ) : void
}


class com.sudoku.controller.windows.SolvedWindow {
	{field} -a_buffer_max : long
	{field} -a_buffer_timestamp : long
	{field} -height : int
	{field} -mouseX : double
	{field} -mouseY : double
	{field} -width : int
	{method} +create () : void
	{method} +cursorPosCallback ( paramdouble1 : double , paramdouble2 : double ) : void
	{method} -holdOver ( paramMenuButton1 : com.sudoku.view.elements.MenuButton ) : void
	{method} +keyCallback ( paramint1 : int , paramint2 : int , paramint3 : int , paramint4 : int ) : void
	{method} +mouseButtonCallback ( paramint1 : int , paramint2 : int , paramint3 : int ) : void
	{method} +resizeCallback ( paramint1 : int , paramint2 : int ) : void
	{method} +step () : void
	{method} +update ( paramWindowManager1 : com.sudoku.controller.WindowManager , paramint2 : int , paramint3 : int , paramSudokuBoard4 : com.sudoku.model.SudokuBoard , paramSudokuBoard5 : com.sudoku.model.SudokuBoard , paramplaySudokuWindow6 : com.sudoku.controller.windows.playSudokuWindow ) : void
	{method} +windowTransition ( paramMenuButton1 : com.sudoku.view.elements.MenuButton ) : void
}


class com.sudoku.controller.windows.mainMenuWindow {
	{field} -Buttons : [Lcom.sudoku.view.elements.MenuButton;
	{field} -height : int
	{field} -mouseX : double
	{field} -mouseY : double
	{field} -width : int
	{method} +create () : void
	{method} +cursorPosCallback ( paramdouble1 : double , paramdouble2 : double ) : void
	{method} +keyCallback ( paramint1 : int , paramint2 : int , paramint3 : int , paramint4 : int ) : void
	{method} +mouseButtonCallback ( paramint1 : int , paramint2 : int , paramint3 : int ) : void
	{method} +resizeCallback ( paramint1 : int , paramint2 : int ) : void
	{method} +step () : void
	{method} +windowTransition ( paramMenuButton1 : com.sudoku.view.elements.MenuButton , paramboolean2 : boolean ) : void
}


class com.sudoku.controller.windows.playSudokuWindow {
	{field} -a_buffer_max : long
	{field} -a_buffer_timestamp : long
	{field} -boardButtons : [[Lcom.sudoku.view.elements.FieldButton;
	{field} -classIsCreated : boolean
	{field} -gpadNumpadIndex : int
	{field} -gpad_selected_before : boolean
	{field} -height : int
	{field} -mouseX : double
	{field} -mouseY : double
	{field} -numpad_buffer : long
	{field} -numpad_buffer_timestamp : long
	{field} -selectedField : [I
	{field} -size : int
	{field} -wasOnBoardLastFrame : boolean
	{field} -width : int
	{method} +create () : void
	{method} +cursorPosCallback ( paramdouble1 : double , paramdouble2 : double ) : void
	{method} -holdOver ( paramMenuButton1 : com.sudoku.view.elements.MenuButton ) : void
	{method} +keyCallback ( paramint1 : int , paramint2 : int , paramint3 : int , paramint4 : int ) : void
	{method} -lastValidation () : void
	{method} +mouseButtonCallback ( paramint1 : int , paramint2 : int , paramint3 : int ) : void
	{method} -numPadHover () : void
	{method} +resizeCallback ( paramint1 : int , paramint2 : int ) : void
	{method} +step () : void
	{method} -typeBoard ( paramint1 : int ) : void
	{method} +validateInput ( param[I1 : [I ) : void
	{method} +windowTransition ( paramMenuButton1 : com.sudoku.view.elements.MenuButton , paramboolean2 : boolean ) : void
}


class com.sudoku.controller.windows.windowTemplate {
	{field} -mouseX : double
	{field} -mouseY : double
	{method} +create () : void
	{method} +cursorPosCallback ( paramdouble1 : double , paramdouble2 : double ) : void
	{method} +keyCallback ( paramint1 : int , paramint2 : int , paramint3 : int , paramint4 : int ) : void
	{method} +mouseButtonCallback ( paramint1 : int , paramint2 : int , paramint3 : int ) : void
	{method} +resizeCallback ( paramint1 : int , paramint2 : int ) : void
	{method} +step () : void
}


class com.sudoku.model.Field {
	{field} -boardSize : int
	{field} -colour : [D
	{field} -legalEntries : java.util.ArrayList
	{field} +locked : boolean
	{field} +value : int
	{field} -x : int
	{field} -y : int
	{method} +addEdge ( paramField1 : com.sudoku.model.Field ) : void
	{method} +changeColour ( paramdouble1 : double , paramdouble2 : double , paramdouble3 : double ) : void
	{method} +clearLe () : void
	{method} +getBlue () : double
	{method} +getCoordinates () : [I
	{method} +getGreen () : double
	{method} +getLeSize () : Integer
	{method} +getPosition () : [I
	{method} +getRed () : double
	{method} +notcontainsEdge ( paramField1 : com.sudoku.model.Field ) : boolean
	{method} +removeEdge ( paramField1 : com.sudoku.model.Field ) : void
	{method} +removeEdges () : void
	{method} +removeLE ( paramint1 : int ) : void
	{method} +removeValueFromLegalEntriesOfNeighbours () : void
}


class com.sudoku.model.Gamepad {
	{field} -aBuffer : long
	{field} -aTimestamp : long
	{field} -buffer : long
	{field} -buffer_timestamp : long
	{field} -connected : boolean
	{field} -deadzone : double
	{field} -entered : boolean
	{field} +moveLocked : boolean
	{field} +position : com.sudoku.model.Gamepad$Position
	{field} -pressed : boolean
	{field} -x : com.sudoku.model.Gamepad$X_Input
	{field} -y : com.sudoku.model.Gamepad$Y_Input
	{method} +addElement ( paramElement1 : com.sudoku.view.elements.Element , paramint2 : int , paramint3 : int ) : void
	{method} -findNearest ( paramGamepad$X_Input1 : com.sudoku.model.Gamepad$X_Input , paramGamepad$Y_Input2 : com.sudoku.model.Gamepad$Y_Input ) : com.sudoku.model.Gamepad$Position
	{method} +getCurrentElement () : com.sudoku.view.elements.Element
	{method} +getElementAt ( paramint1 : int , paramint2 : int ) : com.sudoku.view.elements.Element
	{method} +getXDir () : int
	{method} +getYDir () : int
	{method} +isSelected ( paramElement1 : com.sudoku.view.elements.Element ) : boolean
	{method} +removeElement ( paramElement1 : com.sudoku.view.elements.Element ) : void
	{method} +step () : void
	{method} +updateElement ( paramElement1 : com.sudoku.view.elements.Element , paramint2 : int , paramint3 : int ) : void
}


class com.sudoku.model.Node {
	{field} ~column : com.sudoku.model.ColumnNode
	{field} ~i : int
	{field} ~j : int
	{field} ~n : int
	{method} +getCol () : int
	{method} +getNum () : int
	{method} +getRow () : int
	{method} +setNodeCoordinates ( paramint1 : int , paramint2 : int , paramint3 : int ) : void
}


class com.sudoku.model.Solver {
	{field} -counter : int
	{field} -progress : boolean
	{method} +isBoxEdge ( paramField1 : com.sudoku.model.Field , paramField2 : com.sudoku.model.Field ) : Boolean
	{method} +isColumnEdge ( paramField1 : com.sudoku.model.Field , paramField2 : com.sudoku.model.Field ) : Boolean
	{method} +isRowEdge ( paramField1 : com.sudoku.model.Field , paramField2 : com.sudoku.model.Field ) : Boolean
	{method} +lookAtNeighbours ( paramField1 : com.sudoku.model.Field ) : Integer
	{method} +nakedPair ( paramField1 : com.sudoku.model.Field , paramboolean2 : boolean ) : Boolean
	{method} +solves ( paramSudokuBoard1 : com.sudoku.model.SudokuBoard ) : void
}


class com.sudoku.model.SudokuBoard {
	{field} -bigFieldSize : int
	{field} +difficultyScale : double
	{field} -fieldsAmount : int
	{field} -nrOfFieldsLeft : int
	{field} -size : int
	{field} +solutions : int
	{field} +wholeBoard : [[Lcom.sudoku.model.Field;
	{method} +changeField ( paramint1 : int , paramint2 : int , paramint3 : int ) : void
	{method} +clear () : void
	{method} +getDifficultyString () : String
	{method} +getFieldsToRemove ( paramdouble1 : double ) : int
	{method} +getSingleField ( paramint1 : int , paramint2 : int ) : com.sudoku.model.Field
	{method} +inputDetected () : void
	{method} +isValid ( paramint1 : int , paramint2 : int , paramint3 : int ) : Boolean
	{method} +makeEdges ( paramField1 : com.sudoku.model.Field ) : void
	{method} +populate () : void
	{method} +populate ( paramdouble1 : double ) : void
	{method} +readIntoBoard ( param[[I1 : [[I ) : void
	{method}  {static} +readOutOffBoard ( paramSudokuBoard1 : com.sudoku.model.SudokuBoard ) : [[I
	{method} +solve () : void
	{method} +uniquenessTest () : Boolean
	{method} +updateLegalEntriesOfField ( paramField1 : com.sudoku.model.Field ) : void
}


class com.sudoku.model.algoXSolver {
	{field} -root : com.sudoku.model.ColumnNode
	{field} -solutionCounter : int
	{method} +algoXCreateUnique ( paramColumnNode1 : com.sudoku.model.ColumnNode , paramArrayList2 : java.util.ArrayList ) : java.util.ArrayList
	{method} +algoXIsUnique ( paramSudokuBoard1 : com.sudoku.model.SudokuBoard ) : boolean
	{method} +algoXManager ( paramSudokuBoard1 : com.sudoku.model.SudokuBoard ) : void
	{method} +algoXUniqueTest ( paramColumnNode1 : com.sudoku.model.ColumnNode , paramArrayList2 : java.util.ArrayList ) : void
	{method} +appendToColumn ( paramColumnNode1 : com.sudoku.model.ColumnNode , paramNode2 : com.sudoku.model.Node ) : void
	{method} +cover ( paramColumnNode1 : com.sudoku.model.ColumnNode ) : void
	{method} +findRowInSolution ( paramint1 : int , paramint2 : int , paramint3 : int ) : com.sudoku.model.Node
	{method} +getBestColumnNode ( paramColumnNode1 : com.sudoku.model.ColumnNode ) : com.sudoku.model.ColumnNode
	{method} +initializeNodes ( paramint1 : int ) : com.sudoku.model.ColumnNode
	{method} +search ( paramColumnNode1 : com.sudoku.model.ColumnNode , paramArrayList2 : java.util.ArrayList ) : java.util.ArrayList
	{method} +uncover ( paramColumnNode1 : com.sudoku.model.ColumnNode ) : void
}


class com.sudoku.view.CreateString {
	{field} {static} +BATCH_SIZE : int
	{field} {static} +VERTEX_SIZE : int
	{field} -WINDOWX : float
	{field} -WINDOWY : float
	{field} -indices : [I
	{field} -normalizedAspect : float
	{field} -projection : org.joml.Matrix4f
	{field} -size : int
	{field} -startaspect : float
	{field} -vao : int
	{field} -vbo : int
	{field} -vertices : [F
	{method} -createBatch () : void
	{method} +flush () : void
	{method} -generateEBO () : void
	{method} +makeText ( paramString1 : String , paramfloat2 : float , paramfloat3 : float , paramfloat4 : float , param[F5 : [F ) : void
	{method} -processChar ( paramCharInfo1 : com.sudoku.view.fonts.CharInfo , paramfloat2 : float , paramfloat3 : float , paramfloat4 : float , param[F5 : [F ) : void
	{method} +setXY ( paramint1 : int , paramint2 : int ) : void
}


class com.sudoku.view.Shader {
	{field} -beingUsed : boolean
	{field} -filepath : String
	{field} -fragmentSource : String
	{field} -shaderProgramID : int
	{field} -vertexSource : String
	{method} +compile () : void
	{method} +detach () : void
	{method} +uploadFloat ( paramString1 : String , paramfloat2 : float ) : void
	{method} +uploadInt ( paramString1 : String , paramint2 : int ) : void
	{method} +uploadIntArray ( paramString1 : String , param[I2 : [I ) : void
	{method} +uploadMat3f ( paramString1 : String , paramMatrix3f2 : org.joml.Matrix3f ) : void
	{method} +uploadMat4f ( paramString1 : String , paramMatrix4f2 : org.joml.Matrix4f ) : void
	{method} +uploadTexture ( paramString1 : String , paramint2 : int ) : void
	{method} +uploadVec2f ( paramString1 : String , paramVector2f2 : org.joml.Vector2f ) : void
	{method} +uploadVec3f ( paramString1 : String , paramVector3f2 : org.joml.Vector3f ) : void
	{method} +uploadVec4f ( paramString1 : String , paramVector4f2 : org.joml.Vector4f ) : void
	{method} +use () : void
}


class com.sudoku.view.TerminalView {
	{field} -sudokuBoard : [[Lcom.sudoku.model.Field;
	{method} +printBoard () : void
}


interface com.sudoku.view.elements.Element {
	{method}  {abstract} +draw () : void
}


class com.sudoku.view.elements.FieldButton {
	{field} -colour : [D
	{field} -error : boolean
	{field} -isSolved : boolean
	{field} -notValid : boolean
	{field} -selected : boolean
	{field} -sizeX : double
	{field} -sizeY : double
	{field} -snumber : boolean
	{field} -touching : boolean
	{field} -userGess : boolean
	{field} -value : int
	{field} -x : double
	{field} -y : double
	{method} +draw () : void
	{method} -fieldIsTouching () : void
	{method} +getPos () : [D
	{method} +getSize () : [D
	{method} -samenumber () : void
	{method} +selected ( paramboolean1 : boolean ) : void
	{method} -selectedcolour () : void
	{method} +setFieldSize ( param[D1 : [D ) : void
	{method} +setXY ( param[D1 : [D ) : void
	{method} -whiteColour () : void
}


class com.sudoku.view.elements.MenuButton {
	{field} -half : double
	{field} -heldOver : boolean
	{field} -size : double
	{field} -startTime : double
	{field} -ten : double
	{field} -textString : String
	{field} -x : double
	{field} -y : double
	{method} +draw () : void
	{method} +getPos () : [D
	{method} +heldOver ( paramboolean1 : boolean ) : void
}


class com.sudoku.view.elements.NumPadButton {
	{field} -height : float
	{field} -indexSelec : int
	{field} -input : String
	{field} -rgb : [F
	{field} -scale : float
	{field} +selected : [Z
	{field} -startString : String
	{field} -textOfSetX : float
	{field} -textOfSetY : float
	{field} -width : float
	{field} -x : float
	{field} -y : float
	{method} +draw () : void
	{method} -makeLines () : void
	{method} -makeQuads () : void
	{method} -makeTexts () : void
}


class com.sudoku.view.elements.Slider {
	{field} -deltaTime : double
	{field} -diamondScale : double
	{field} -gpadSpd : double
	{field} -half : double
	{field} -height : double
	{field} -heldOver : boolean
	{field} -lastFrameTime : long
	{field} -mbLeftHeld : boolean
	{field} -mouseX : double
	{field} -mouseY : double
	{field} -overrideValueString : String
	{field} -pickerBarWidth : double
	{field} -pickerDragging : boolean
	{field} -pickerHeldOver : boolean
	{field} -prefixTextString : String
	{field} -screenHeight : double
	{field} -screenWidth : double
	{field} -size : double
	{field} -sliderX : double
	{field} -startTime : double
	{field} -suffixTextString : String
	{field} -ten : double
	{field} -width : double
	{field} -x : double
	{field} -y : double
	{field} -ySquareRot : double
	{field} -ySquareSpd : double
	{field} -ySquareSpdMax : double
	{field} -ySquareVelocity : double
	{method} +draw () : void
	{method} +getPos () : [D
	{method} +getValue () : double
	{method} -lerp ( paramdouble1 : double , paramdouble2 : double , paramdouble3 : double ) : double
	{method} +update ( paramdouble1 : double , paramdouble2 : double , paramdouble3 : double , paramdouble4 : double , paramboolean5 : boolean ) : void
	{method} +updatePrefix ( paramString1 : String ) : void
	{method} +updateSuffix ( paramString1 : String ) : void
}


class com.sudoku.view.elements.Sudoku {
	{field} -aspect : double
	{field} -buttonArray : [[Lcom.sudoku.view.elements.FieldButton;
	{field} -fieldsizeX : double
	{field} -fieldsizeY : double
	{field} -height : int
	{field} -size : int
	{field} -sudokuSize : double
	{field} -width : int
	{field} -xAspect : double
	{field} -xOffset : double
	{field} -xStart : double
	{field} -yAspect : double
	{field} -yOffset : double
	{field} -yStart : double
	{method} -bigfieldline () : void
	{method} +draw () : void
	{method} +leftClick ( paramdouble1 : double , paramdouble2 : double ) : [I
	{method} -regularline () : void
	{method} +resize ( paramint1 : int , paramint2 : int ) : void
	{method} +setNotValidInput ( paramboolean1 : boolean , param[I2 : [I ) : void
	{method} +setNotValidInputToFalse ( param[I1 : [I ) : void
}


class com.sudoku.view.elements.TextFieldButton {
	{field} -heldOver : boolean
	{field} +input : String
	{field} -isValid : boolean
	{field} +quadPos : [F
	{field} -rgb : [F
	{field} -scale : float
	{field} +selected : boolean
	{field} -startString : String
	{field} -xPos : float
	{field} -yPos : float
	{method} +draw () : void
	{method} +getValidity () : boolean
	{method} +heldOver ( paramboolean1 : boolean ) : void
	{method} +updateInput () : void
	{method} +updateInput ( paramchar1 : char ) : void
}


class com.sudoku.view.fonts.CharInfo {
	{field} +height : int
	{field} +textureCoord : [Lorg.joml.Vector2f;
	{field} +width : int
	{field} +x : int
	{field} +y : int
	{field} +yOfSet : float
	{method} +calTextureCoord ( paramint1 : int , paramint2 : int ) : void
}


class com.sudoku.view.fonts.CreateFont {
	{field} +atlas : [C
	{field} +filePath : String
	{field} +fontSize : int
	{field} +textureId : int
	{method} +createBitMap () : void
	{method} +createBitMapV2 () : void
	{method} +getChar ( paramchar1 : char ) : com.sudoku.view.fonts.CharInfo
	{method} -uploadTexture ( paramBufferedImage1 : java.awt.image.BufferedImage ) : void
}




com.sudoku.App -->  com.sudoku.controller.WindowManager : wm
com.sudoku.controller.Window -->  com.sudoku.controller.WindowManager : wm
com.sudoku.controller.WindowManager -->  com.sudoku.controller.WindowInterface : activeWindow
com.sudoku.controller.WindowManager -->  com.sudoku.view.Shader : fontShader
com.sudoku.controller.WindowManager -->  com.sudoku.view.fonts.CreateFont : font
com.sudoku.controller.windows.CreateMenuWindow -->  com.sudoku.controller.WindowManager : wm
com.sudoku.controller.windows.CreateMenuWindow -->  com.sudoku.model.Gamepad : gpad
com.sudoku.controller.windows.CreateMenuWindow -->  com.sudoku.model.SudokuBoard : sudokuBoard
com.sudoku.controller.windows.CreateMenuWindow -->  com.sudoku.view.CreateString : text
com.sudoku.controller.windows.CreateMenuWindow -->  com.sudoku.view.CreateString : textInfo
com.sudoku.controller.windows.CreateMenuWindow -->  com.sudoku.view.Shader : fontShader
com.sudoku.controller.windows.CreateMenuWindow -->  com.sudoku.view.elements.MenuButton : returnButton
com.sudoku.controller.windows.CreateMenuWindow -->  com.sudoku.view.elements.NumPadButton : numPad
com.sudoku.controller.windows.CreateMenuWindow -->  com.sudoku.view.elements.TextFieldButton : textField
com.sudoku.controller.windows.CreateMenuWindow -->  com.sudoku.view.fonts.CreateFont : font
com.sudoku.controller.windows.CreateMenuWindow --|>  com.sudoku.controller.Window
com.sudoku.controller.windows.CreateMenuWindow ..|>  com.sudoku.controller.WindowInterface
com.sudoku.controller.windows.EndScreenWindow -->  com.sudoku.controller.WindowManager : wm
com.sudoku.controller.windows.EndScreenWindow -->  com.sudoku.model.Gamepad : gpad
com.sudoku.controller.windows.EndScreenWindow -->  com.sudoku.model.SudokuBoard : sudokuBoard
com.sudoku.controller.windows.EndScreenWindow -->  com.sudoku.view.CreateString : text
com.sudoku.controller.windows.EndScreenWindow -->  com.sudoku.view.Shader : fontShader
com.sudoku.controller.windows.EndScreenWindow -->  com.sudoku.view.elements.MenuButton : returnButton
com.sudoku.controller.windows.EndScreenWindow -->  com.sudoku.view.elements.Sudoku : sudokuUI
com.sudoku.controller.windows.EndScreenWindow -->  com.sudoku.view.fonts.CreateFont : font
com.sudoku.controller.windows.EndScreenWindow --|>  com.sudoku.controller.Window
com.sudoku.controller.windows.EndScreenWindow ..|>  com.sudoku.controller.WindowInterface
com.sudoku.controller.windows.HintWindow -->  com.sudoku.controller.WindowManager : wm
com.sudoku.controller.windows.HintWindow --|>  com.sudoku.controller.Window
com.sudoku.controller.windows.HintWindow ..|>  com.sudoku.controller.WindowInterface
com.sudoku.controller.windows.PlaySudokuSettingsWindow -->  com.sudoku.controller.WindowManager : wm
com.sudoku.controller.windows.PlaySudokuSettingsWindow -->  com.sudoku.model.Gamepad : gpad
com.sudoku.controller.windows.PlaySudokuSettingsWindow -->  com.sudoku.model.SudokuBoard : sb
com.sudoku.controller.windows.PlaySudokuSettingsWindow -->  com.sudoku.view.CreateString : text
com.sudoku.controller.windows.PlaySudokuSettingsWindow -->  com.sudoku.view.CreateString : textInfo
com.sudoku.controller.windows.PlaySudokuSettingsWindow -->  com.sudoku.view.elements.MenuButton : backButton
com.sudoku.controller.windows.PlaySudokuSettingsWindow -->  com.sudoku.view.elements.MenuButton : startButton
com.sudoku.controller.windows.PlaySudokuSettingsWindow -->  com.sudoku.view.elements.NumPadButton : numPad
com.sudoku.controller.windows.PlaySudokuSettingsWindow -->  com.sudoku.view.elements.Slider : difficultySlider
com.sudoku.controller.windows.PlaySudokuSettingsWindow -->  com.sudoku.view.elements.TextFieldButton : textField
com.sudoku.controller.windows.PlaySudokuSettingsWindow -->  com.sudoku.view.fonts.CreateFont : font
com.sudoku.controller.windows.PlaySudokuSettingsWindow --|>  com.sudoku.controller.Window
com.sudoku.controller.windows.PlaySudokuSettingsWindow ..|>  com.sudoku.controller.WindowInterface
com.sudoku.controller.windows.SolvedWindow -->  com.sudoku.controller.WindowManager : wm
com.sudoku.controller.windows.SolvedWindow -->  com.sudoku.controller.windows.playSudokuWindow : pw
com.sudoku.controller.windows.SolvedWindow -->  com.sudoku.model.Gamepad : gpad
com.sudoku.controller.windows.SolvedWindow -->  com.sudoku.model.SudokuBoard : solvedSudokuBoard
com.sudoku.controller.windows.SolvedWindow -->  com.sudoku.model.SudokuBoard : sudokuBoard
com.sudoku.controller.windows.SolvedWindow -->  com.sudoku.view.CreateString : text
com.sudoku.controller.windows.SolvedWindow -->  com.sudoku.view.Shader : fontShader
com.sudoku.controller.windows.SolvedWindow -->  com.sudoku.view.elements.MenuButton : end
com.sudoku.controller.windows.SolvedWindow -->  com.sudoku.view.elements.MenuButton : returnButton
com.sudoku.controller.windows.SolvedWindow -->  com.sudoku.view.elements.Sudoku : sudokuUI
com.sudoku.controller.windows.SolvedWindow -->  com.sudoku.view.fonts.CreateFont : font
com.sudoku.controller.windows.SolvedWindow --|>  com.sudoku.controller.Window
com.sudoku.controller.windows.SolvedWindow ..|>  com.sudoku.controller.WindowInterface
com.sudoku.controller.windows.mainMenuWindow -->  com.sudoku.controller.WindowManager : wm
com.sudoku.controller.windows.mainMenuWindow -->  com.sudoku.model.Gamepad : gpad
com.sudoku.controller.windows.mainMenuWindow -->  com.sudoku.view.CreateString : text
com.sudoku.controller.windows.mainMenuWindow -->  com.sudoku.view.Shader : fontShader
com.sudoku.controller.windows.mainMenuWindow -->  com.sudoku.view.elements.MenuButton : createButton
com.sudoku.controller.windows.mainMenuWindow -->  com.sudoku.view.elements.MenuButton : exitButton
com.sudoku.controller.windows.mainMenuWindow -->  com.sudoku.view.elements.MenuButton : playButton
com.sudoku.controller.windows.mainMenuWindow -->  com.sudoku.view.fonts.CreateFont : font
com.sudoku.controller.windows.mainMenuWindow --|>  com.sudoku.controller.Window
com.sudoku.controller.windows.mainMenuWindow ..|>  com.sudoku.controller.WindowInterface
com.sudoku.controller.windows.playSudokuWindow -->  com.sudoku.controller.WindowManager : wm
com.sudoku.controller.windows.playSudokuWindow -->  com.sudoku.model.Gamepad : gpad
com.sudoku.controller.windows.playSudokuWindow -->  com.sudoku.model.SudokuBoard : solvedSudokuBoard
com.sudoku.controller.windows.playSudokuWindow -->  com.sudoku.model.SudokuBoard : sudokuBoard
com.sudoku.controller.windows.playSudokuWindow -->  com.sudoku.view.CreateString : text
com.sudoku.controller.windows.playSudokuWindow -->  com.sudoku.view.Shader : fontShader
com.sudoku.controller.windows.playSudokuWindow -->  com.sudoku.view.elements.MenuButton : hintButton
com.sudoku.controller.windows.playSudokuWindow -->  com.sudoku.view.elements.MenuButton : returnButton
com.sudoku.controller.windows.playSudokuWindow -->  com.sudoku.view.elements.MenuButton : solveButton
com.sudoku.controller.windows.playSudokuWindow -->  com.sudoku.view.elements.NumPadButton : numPad
com.sudoku.controller.windows.playSudokuWindow -->  com.sudoku.view.elements.Sudoku : sudokuFront
com.sudoku.controller.windows.playSudokuWindow -->  com.sudoku.view.fonts.CreateFont : font
com.sudoku.controller.windows.playSudokuWindow --|>  com.sudoku.controller.Window
com.sudoku.controller.windows.playSudokuWindow ..|>  com.sudoku.controller.WindowInterface
com.sudoku.controller.windows.windowTemplate -->  com.sudoku.controller.WindowManager : wm
com.sudoku.controller.windows.windowTemplate -->  com.sudoku.model.Gamepad : gpad
com.sudoku.controller.windows.windowTemplate --|>  com.sudoku.controller.Window
com.sudoku.controller.windows.windowTemplate ..|>  com.sudoku.controller.WindowInterface
com.sudoku.model.Field "1" o-- "0..*"  com.sudoku.model.Field : Edges
com.sudoku.model.Gamepad "1" o-- "0..*"  com.sudoku.view.elements.Element : buttonMap
com.sudoku.model.Node -->  com.sudoku.model.Node : down
com.sudoku.model.Node -->  com.sudoku.model.Node : left
com.sudoku.model.Node -->  com.sudoku.model.Node : right
com.sudoku.model.Node -->  com.sudoku.model.Node : up
com.sudoku.model.SudokuBoard "1" o-- "0..*"  com.sudoku.model.Field : fields
com.sudoku.model.SudokuBoard -->  com.sudoku.model.algoXSolver : algoX
com.sudoku.model.algoXSolver "1" o-- "0..*"  com.sudoku.model.Node : solution
com.sudoku.view.CreateString -->  com.sudoku.view.Shader : shader
com.sudoku.view.CreateString -->  com.sudoku.view.fonts.CreateFont : font
com.sudoku.view.elements.FieldButton -->  com.sudoku.model.Field : field
com.sudoku.view.elements.FieldButton -->  com.sudoku.view.CreateString : text
com.sudoku.view.elements.FieldButton -->  com.sudoku.view.Shader : fontShader
com.sudoku.view.elements.FieldButton ..|>  com.sudoku.view.elements.Element
com.sudoku.view.elements.MenuButton -->  com.sudoku.view.CreateString : text
com.sudoku.view.elements.MenuButton -->  com.sudoku.view.Shader : fontShader
com.sudoku.view.elements.MenuButton ..|>  com.sudoku.view.elements.Element
com.sudoku.view.elements.NumPadButton -->  com.sudoku.view.CreateString : text
com.sudoku.view.elements.NumPadButton -->  com.sudoku.view.Shader : fontShader
com.sudoku.view.elements.NumPadButton ..|>  com.sudoku.view.elements.Element
com.sudoku.view.elements.Slider -->  com.sudoku.model.Gamepad : gpad
com.sudoku.view.elements.Slider -->  com.sudoku.view.CreateString : text
com.sudoku.view.elements.Slider -->  com.sudoku.view.Shader : fontShader
com.sudoku.view.elements.Slider ..|>  com.sudoku.view.elements.Element
com.sudoku.view.elements.Sudoku -->  com.sudoku.model.SudokuBoard : sudokuBoard
com.sudoku.view.elements.Sudoku -->  com.sudoku.view.CreateString : text
com.sudoku.view.elements.Sudoku -->  com.sudoku.view.Shader : fontShader
com.sudoku.view.elements.Sudoku ..|>  com.sudoku.view.elements.Element
com.sudoku.view.elements.TextFieldButton -->  com.sudoku.view.CreateString : text
com.sudoku.view.elements.TextFieldButton -->  com.sudoku.view.Shader : fontShader
com.sudoku.view.elements.TextFieldButton ..|>  com.sudoku.view.elements.Element
com.sudoku.view.fonts.CreateFont "1" o-- "0..*"  com.sudoku.view.fonts.CharInfo : charMap


@enduml